<svg width="39" height="39" viewBox="0 0 39 39" fill="none" xmlns="http://www.w3.org/2000/svg">
<path d="M39 19.5C39 30.2696 30.2696 39 19.5 39C8.73045 39 0 30.2696 0 19.5C0 8.73045 8.73045 0 19.5 0C30.2696 0 39 8.73045 39 19.5Z" fill="#D9D9D9"/>
<path d="M9.72727 18.4783L12.4545 15.3478L15.1818 17.9565L18.4545 15.8696L20.6364 19L23.3636 15.8696L25.5455 18.4783L28.2727 21.6087L26.6364 25.7826C25.1818 27.1739 22.1636 29.9565 21.7273 29.9565C21.2909 29.9565 17.9091 30.6522 16.2727 31C15.5455 30.6522 13.9818 29.9565 13.5455 29.9565C13.1091 29.9565 10.4545 28.2174 9.18182 27.3478C8.45455 26.4783 7 24.6348 7 24.2174C7 23.8 8.81818 20.913 9.72727 19.5217V18.4783Z" fill="#0B0101"/>
<path d="M9.18182 12.2174L7.54545 9.6087H8.09091V9.08696L13 7C13.1818 7.52174 13.5455 8.66957 13.5455 9.08696C13.5455 9.50435 13.5455 10.3043 13.5455 10.6522L9.18182 12.2174ZM9.18182 12.2174L7.54545 9.08696M9.72727 18.4783L12.4545 15.3478L15.1818 17.9565L18.4545 15.8696L20.6364 19L23.3636 15.8696L25.5455 18.4783L28.2727 21.6087L26.6364 25.7826C25.1818 27.1739 22.1636 29.9565 21.7273 29.9565C21.2909 29.9565 17.9091 30.6522 16.2727 31C15.5455 30.6522 13.9818 29.9565 13.5455 29.9565C13.1091 29.9565 10.4545 28.2174 9.18182 27.3478C8.45455 26.4783 7 24.6348 7 24.2174C7 23.8 8.81818 20.913 9.72727 19.5217V18.4783ZM23.3636 7.19565L20.6364 11.6957L31 12.7391L30.4545 8.04348L23.9091 7.52174L23.3636 7.19565Z" stroke="black"/>
</svg>
