<svg width="1440" height="1024" viewBox="0 0 1440 1024" fill="none" xmlns="http://www.w3.org/2000/svg">
<g clip-path="url(#clip0_186_441)">
<rect width="1440" height="1024" fill="#222222"/>
<path d="M318.6 731C319.133 731.533 319.4 732.333 319.4 733.4C319.4 734.2 318.733 735.4 317.4 737C308.6 746.6 300.733 757.667 293.8 770.2C286.867 782.467 280.867 795.933 275.8 810.6C271 825.267 267.267 840.733 264.6 857C261.933 873.267 260.6 889.933 260.6 907C260.6 919.8 262.2 929.8 265.4 937C268.6 943.933 274.067 947.4 281.8 947.4C292.2 947.4 302.333 939.933 312.2 925C313 924.467 313.8 924.467 314.6 925C315.4 925.533 315.533 926.333 315 927.4C312.333 931.933 309.133 936.467 305.4 941C301.933 945.267 298.2 949.267 294.2 953C290.2 956.467 286.2 959.4 282.2 961.8C278.467 963.933 275 965 271.8 965C263 965 256.2 960.6 251.4 951.8C246.867 942.733 244.6 931.267 244.6 917.4C244.6 896.067 247 874.333 251.8 852.2C239.267 852.2 226.867 852.333 214.6 852.6C202.6 852.867 190.733 853.267 179 853.8C170.2 863.133 161.667 871.933 153.4 880.2C145.4 888.467 137.533 896.067 129.8 903C108.467 922.467 86.4667 937.667 63.8 948.6C41.4 959.533 16.7333 965 -10.2 965C-23.8 965 -34.8667 961.8 -43.4 955.4C-51.6667 948.733 -57.4 940.467 -60.6 930.6C-63.5333 920.733 -63.8 909.933 -61.4 898.2C-58.7333 886.2 -53 875 -44.2 864.6C-43.4 864.067 -42.4667 864.2 -41.4 865C-40.3333 865.533 -39.9333 866.733 -40.2 868.6C-46.6 875.533 -50.4667 883.533 -51.8 892.6C-52.8667 901.667 -51.4 910.333 -47.4 918.6C-43.4 926.867 -36.6 933.8 -27 939.4C-17.4 945 -4.86666 947.8 10.6 947.8C30.8667 947.8 51.2667 943 71.8 933.4C92.6 923.8 112.2 910.333 130.6 893C136.467 887.667 142.467 881.8 148.6 875.4C155 868.733 161.667 861.667 168.6 854.2C150.2 855.533 133.667 857.133 119 859C117.667 858.733 117.4 858.067 118.2 857C119 855.933 120.2 854.867 121.8 853.8C123.667 852.467 125.667 851.4 127.8 850.6C130.2 849.533 132.467 848.867 134.6 848.6C137.8 848.333 143 848.2 150.2 848.2C157.667 847.933 166.067 847.667 175.4 847.4C190.6 831.4 207.533 814.2 226.2 795.8C245.133 777.4 267 758.467 291.8 739C273.933 733.133 255.4 728.333 236.2 724.6C217.267 720.6 199 718.6 181.4 718.6C161.4 718.6 144.733 724.467 131.4 736.2C118.333 747.667 110.2 765.267 107 789C106.467 790.333 105.667 790.867 104.6 790.6C103.8 790.333 103.267 789.533 103 788.2C106.2 762.067 115.933 742.067 132.2 728.2C148.467 714.333 169.533 707.4 195.4 707.4C206.333 707.4 217.4 708.2 228.6 709.8C239.8 711.133 250.733 713 261.4 715.4C272.067 717.533 282.2 720.067 291.8 723C301.667 725.667 310.6 728.333 318.6 731ZM253 847C257.533 827.533 263.8 808.6 271.8 790.2C279.8 771.533 289.4 754.6 300.6 739.4C277.133 758.333 256.067 777 237.4 795.4C218.733 813.533 201.4 830.867 185.4 847.4C198.2 847.133 210.867 847 223.4 847C235.933 847 245.8 847 253 847Z" fill="#292929"/>
<path d="M424.4 42.4C431.867 42.4 437.733 45.3333 442 51.2C446.533 56.8 448.8 66.6667 448.8 80.8C448.533 82.4 447.733 83.3333 446.4 83.6C445.333 83.6 444.533 82.8 444 81.2C443.467 76.4 441.733 72.2667 438.8 68.8C435.867 65.3333 432.267 62.9333 428 61.6C423.733 60 418.933 59.6 413.6 60.4C408.533 60.9333 403.467 63.0667 398.4 66.8C385.333 76.1333 373.333 89.3333 362.4 106.4C351.467 123.467 341.867 142.4 333.6 163.2C325.333 183.733 318.8 205.333 314 228C309.2 250.667 306.4 272.267 305.6 292.8C305.6 295.733 305.333 297.733 304.8 298.8C304.267 299.6 303.333 300 302 300C300.933 300 300 299.467 299.2 298.4C298.667 297.067 298.133 295.6 297.6 294C285.6 248.4 271.2 208.267 254.4 173.6C237.6 138.667 218.4 111.2 196.8 91.2C190.933 124.267 182.533 153.733 171.6 179.6C160.667 205.467 147.867 227.333 133.2 245.2C118.533 263.067 102.533 276.667 85.2 286C67.8667 295.333 50 300 31.6 300C12.6667 300 -2.66667 296 -14.4 288C-26.1333 279.733 -34.1333 269.733 -38.4 258C-42.6667 246 -43.0667 233.333 -39.6 220C-36.1333 206.4 -28.6667 194.4 -17.2 184C-15.8667 183.733 -14.9333 184.133 -14.4 185.2C-13.6 186 -13.4667 187.067 -14 188.4C-21.7333 196.133 -26.6667 205.467 -28.8 216.4C-30.9333 227.067 -29.8667 237.333 -25.6 247.2C-21.3333 257.067 -13.7333 265.467 -2.8 272.4C8.13334 279.333 22.9333 282.8 41.6 282.8C60 282.8 77.2 278.4 93.2 269.6C109.2 260.533 123.467 247.6 136 230.8C148.8 213.733 159.6 192.933 168.4 168.4C177.467 143.6 184.267 115.467 188.8 84C177.6 74.6667 166 67.6 154 62.8C142 58 129.467 55.6 116.4 55.6C103.6 55.6 92.9333 58.5333 84.4 64.4C76.1333 70.2667 70.1333 76.8 66.4 84C65.6 84.5333 64.6667 84.6666 63.6 84.4C62.8 84.1333 62.2667 83.3333 62 82C64.4 76.9333 67.6 72 71.6 67.2C75.8667 62.4 80.6667 58.2667 86 54.8C91.3333 51.0667 97.4667 48.1333 104.4 46C111.333 43.6 118.8 42.4 126.8 42.4C138 42.4 148.933 44.5333 159.6 48.8C170.533 52.8 181.067 58.6667 191.2 66.4V65.6C191.467 64 192.133 62.1333 193.2 60C194.267 57.8667 195.333 56 196.4 54.4C197.733 52.5333 198.933 51.3333 200 50.8C201.067 50 201.733 50.2666 202 51.6C201.733 55.3333 201.333 59.0666 200.8 62.8C200.533 66.2666 200.133 69.7333 199.6 73.2C211.067 83.3333 222 95.2 232.4 108.8C242.8 122.4 252.4 137.2 261.2 153.2C270 169.2 277.867 186.133 284.8 204C292 221.6 298.267 239.467 303.6 257.6C305.467 241.6 308.533 225.2 312.8 208.4C317.067 191.333 322.267 174.933 328.4 159.2C334.533 143.2 341.333 128.133 348.8 114C356.533 99.8667 364.533 87.4667 372.8 76.8C381.333 66.1333 389.867 57.7333 398.4 51.6C407.2 45.4666 415.867 42.4 424.4 42.4Z" fill="#6A6363"/>
<path d="M1450.2 667C1451 667.533 1451.27 668.333 1451 669.4C1450.73 670.467 1450.07 671.667 1449 673C1447.93 674.333 1446.73 675.667 1445.4 677C1444.07 678.333 1442.87 679.267 1441.8 679.8C1436.47 681.4 1431.67 683.533 1427.4 686.2C1423.13 688.867 1419 693 1415 698.6C1411 704.2 1407.13 711.933 1403.4 721.8C1399.67 731.4 1395.8 743.933 1391.8 759.4C1382.2 795.933 1369.13 826.867 1352.6 852.2C1356.33 851.667 1359.8 850.733 1363 849.4C1366.47 848.067 1369.13 846.867 1371 845.8C1371.8 845.533 1372.33 845.8 1372.6 846.6C1372.87 847.133 1372.73 847.8 1372.2 848.6C1366.6 852.333 1359.27 854.867 1350.2 856.2C1334.73 878.6 1316.73 895.667 1296.2 907.4C1275.67 919.133 1252.73 925 1227.4 925C1211.4 925 1198.6 921.4 1189 914.2C1179.67 907 1175 898.2 1175 887.8C1175 879.533 1178.47 871.267 1185.4 863C1192.33 854.733 1201.67 847.933 1213.4 842.6C1214.73 842.867 1215.4 843.4 1215.4 844.2C1215.67 845 1215.53 845.667 1215 846.2C1206.73 850.733 1200.6 855.933 1196.6 861.8C1192.6 867.667 1190.6 873.667 1190.6 879.8C1190.6 888.867 1194.73 896.733 1203 903.4C1211.27 910.067 1223.8 913.4 1240.6 913.4C1261.67 913.4 1280.33 909.133 1296.6 900.6C1313.13 891.8 1327.67 877.133 1340.2 856.6C1326.6 855.8 1316.2 850.6 1309 841C1301.8 831.4 1298.2 819 1298.2 803.8C1298.2 787.267 1302.2 770.867 1310.2 754.6C1318.2 738.333 1329 723.667 1342.6 710.6C1356.47 697.533 1372.6 687 1391 679C1409.67 671 1429.4 667 1450.2 667ZM1374.6 768.2C1377.53 757 1380.6 747 1383.8 738.2C1387 729.133 1390.6 721.133 1394.6 714.2C1398.6 707.267 1403 701.267 1407.8 696.2C1412.87 690.867 1418.47 686.333 1424.6 682.6C1406.2 684.733 1389.53 689.933 1374.6 698.2C1359.67 706.2 1346.87 715.8 1336.2 727C1325.8 738.2 1317.67 750.467 1311.8 763.8C1306.2 776.867 1303.4 789.667 1303.4 802.2C1303.4 818.2 1306.87 830.467 1313.8 839C1321 847.267 1330.6 851.8 1342.6 852.6C1348.73 841.933 1354.47 829.667 1359.8 815.8C1365.13 801.667 1370.07 785.8 1374.6 768.2Z" fill="#685E5E"/>
</g>
<defs>
<clipPath id="clip0_186_441">
<rect width="1440" height="1024" fill="white"/>
</clipPath>
</defs>
</svg>
