<svg width="3038" height="3000" viewBox="0 0 3038 3000" fill="none" xmlns="http://www.w3.org/2000/svg">
<path d="M803.949 1571.22C738.707 1672.42 676.581 1483.72 653.673 1376.72C631.263 1422.34 612.323 1477.32 599.004 1543.22C635.449 1631.72 722.218 1789.22 777.738 1711.22C784.035 1664.34 792.655 1615.41 803.949 1571.22Z" fill="#23AD00"/>
<path d="M579.679 1705.22C579.166 1715.86 578.772 1726.69 578.501 1737.72C578.298 1745.98 578.1 1754.11 577.904 1762.13C577.167 1792.3 576.472 1820.8 575.758 1847.72C606.587 1909.89 686.022 2017.52 757.124 1950.72C758.592 1915.54 761.328 1878.09 765.501 1838.22C765.729 1834.17 765.982 1830 766.261 1825.72C684.869 1882.52 607.96 1769.06 579.679 1705.22Z" fill="#23AD00"/>
<path d="M756.931 2054.22C676.075 2117.82 599.01 2041.39 570.585 1995.22C568.746 2032.06 566.469 2064.56 563.429 2093.22C586.778 2155.22 662.327 2265.15 777.738 2208.96C765.522 2162.55 759.24 2106.78 756.931 2054.22Z" fill="#23AD00"/>
<path d="M723.501 2491.22C774.4 2491.22 804.537 2475.29 820.461 2450.72C824.193 2444.97 827.145 2438.74 829.4 2432.13C827.131 2376.47 643.079 2264.04 539.616 2208.96C525.92 2244.49 506.524 2267.24 478.501 2281.8C566.973 2334.61 725.868 2450.42 653.673 2491.22H723.501Z" fill="#23AD00"/>
<path d="M206.501 2491.81C218.901 2478.29 182.372 2363.42 162.558 2307.69C112.397 2310.58 78.2071 2320.48 55.0008 2334.04C87.0008 2374.33 143.701 2462.43 114.501 2492.56C142.943 2493.11 174.669 2492.59 206.501 2491.81Z" fill="#23AD00"/>
<path d="M441.587 2491.22C488.056 2467.22 422.225 2356.6 383.501 2304.29C351.686 2306.95 314.358 2307.55 270.501 2307.69C299.168 2368.86 347.901 2491.22 313.501 2491.22H441.587Z" fill="#23AD00"/>
<path fill-rule="evenodd" clip-rule="evenodd" d="M803.949 1571.22C815.448 1526.24 829.72 1486.18 847.137 1458.22C725.646 1501.82 722.237 1344.06 735.719 1259.72C706.13 1289.12 677.877 1327.46 653.673 1376.72C676.581 1483.72 738.707 1672.42 803.949 1571.22ZM599.004 1543.22C635.449 1631.72 722.218 1789.22 777.738 1711.22C772.19 1752.53 768.445 1792.24 766.261 1825.72C684.869 1882.52 607.96 1769.06 579.679 1705.22C582.585 1645.02 589.304 1591.23 599.004 1543.22ZM575.758 1847.72C574.283 1903.35 572.732 1952.24 570.585 1995.22C599.01 2041.39 676.075 2117.82 756.931 2054.22C755.93 2031.45 755.675 2009.27 756.007 1988.72C756.213 1976.36 756.582 1963.7 757.124 1950.72C686.022 2017.52 606.587 1909.89 575.758 1847.72ZM539.616 2208.96C550.848 2179.82 558.247 2142.09 563.429 2093.22C586.778 2155.22 662.327 2265.15 777.738 2208.96C780.195 2218.29 782.891 2227.25 785.844 2235.72C816.064 2288.73 848.977 2374.74 829.4 2432.13C827.131 2376.47 643.079 2264.04 539.616 2208.96ZM478.501 2281.8C454.051 2294.51 423.033 2300.99 383.501 2304.29C422.225 2356.6 488.056 2467.22 441.587 2491.22H653.673C725.868 2450.42 566.973 2334.61 478.501 2281.8ZM230.369 2307.72C244.32 2307.72 257.689 2307.72 270.501 2307.69C299.168 2368.86 347.901 2491.22 313.501 2491.22H229.501C221.858 2491.43 214.176 2491.63 206.501 2491.81C218.901 2478.29 182.372 2363.42 162.558 2307.69C182.298 2306.55 204.511 2306.49 229.501 2307.72H230.369ZM55.0008 2334.04C19.4139 2354.84 9.65579 2384.25 7.73811 2410.22C2.82566 2434.14 5.40078 2483.36 55.0008 2488.86C71.7693 2491.03 92.1186 2492.13 114.501 2492.56C143.701 2462.43 87.0008 2374.33 55.0008 2334.04Z" fill="black" fill-opacity="0.5"/>
<path d="M993.501 1359.72C1011.09 1374.59 1027.02 1383.25 1041 1387.7L1033 1363.26C1014.08 1359.85 996.175 1352.03 985.816 1347.5C973.163 1341.97 971.763 1341.35 993.501 1359.72Z" fill="white"/>
<path d="M1033 1363.26L1041 1387.7C1051.68 1391.1 1061.22 1392.05 1069.5 1391.42L1058 1364.53C1049.84 1365.4 1041.32 1364.75 1033 1363.26Z" fill="white"/>
<path d="M1058 1364.53L1069.5 1391.42C1076.63 1390.88 1082.82 1389.18 1088 1386.88L1078.45 1358.22C1072.17 1361.81 1065.22 1363.76 1058 1364.53Z" fill="white"/>
<path d="M1088 1386.88C1094.38 1384.05 1099.23 1380.31 1102.39 1376.72L1096 1340.27C1091.25 1348.55 1085.24 1354.35 1078.45 1358.22L1088 1386.88Z" fill="white"/>
<path d="M1102.39 1376.72C1112.74 1353.13 1114 1324.96 1106.92 1297.22C1105.8 1316.07 1101.86 1330.06 1096 1340.27L1102.39 1376.72Z" fill="white"/>
<path d="M908.501 1417.73C1018.33 1455.81 1080.58 1426.45 1102.39 1376.72C1099.23 1380.31 1094.38 1384.05 1088 1386.88C1082.82 1389.18 1076.63 1390.88 1069.5 1391.42C1061.22 1392.05 1051.68 1391.1 1041 1387.7C1027.02 1383.25 1011.09 1374.59 993.501 1359.72C971.763 1341.35 973.163 1341.97 985.816 1347.5C996.175 1352.03 1014.08 1359.85 1033 1363.26C1041.32 1364.75 1049.84 1365.4 1058 1364.53C1065.22 1363.76 1072.17 1361.81 1078.45 1358.22C1085.24 1354.35 1091.25 1348.55 1096 1340.27C1101.86 1330.06 1105.8 1316.07 1106.92 1297.22C1089.9 1230.55 1024.71 1166.44 922.001 1174.73C872.803 1173.61 801.005 1194.88 735.719 1259.72C722.237 1344.06 725.646 1501.82 847.137 1458.22C864.386 1430.53 884.72 1414.71 908.501 1417.73Z" fill="black" fill-opacity="0.62"/>
<path d="M229.501 2307.72C204.511 2306.49 182.298 2306.55 162.558 2307.69M229.501 2307.72H230.369M229.501 2307.72C229.79 2307.72 230.08 2307.72 230.369 2307.72M229.501 2491.22H313.501M229.501 2491.22C255.171 2491.22 283.439 2491.22 313.501 2491.22M229.501 2491.22C221.858 2491.43 214.176 2491.63 206.501 2491.81M723.501 2491.22C774.4 2491.22 804.537 2475.29 820.461 2450.72M723.501 2491.22H653.673M723.501 2491.22C700.937 2491.22 677.559 2491.22 653.673 2491.22M1102.39 1376.72C1080.58 1426.45 1018.33 1455.81 908.501 1417.73C884.72 1414.71 864.386 1430.53 847.137 1458.22M1102.39 1376.72C1112.74 1353.13 1114 1324.96 1106.92 1297.22M1102.39 1376.72C1099.23 1380.31 1094.38 1384.05 1088 1386.88M1102.39 1376.72L1096 1340.27M1106.92 1297.22C1089.9 1230.55 1024.71 1166.44 922.001 1174.73C872.803 1173.61 801.005 1194.88 735.719 1259.72M1106.92 1297.22C1105.8 1316.07 1101.86 1330.06 1096 1340.27M1033 1363.26L1041 1387.7M1033 1363.26C1041.32 1364.75 1049.84 1365.4 1058 1364.53M1033 1363.26C1014.08 1359.85 996.175 1352.03 985.816 1347.5C973.163 1341.97 971.763 1341.35 993.501 1359.72C1011.09 1374.59 1027.02 1383.25 1041 1387.7M1041 1387.7C1051.68 1391.1 1061.22 1392.05 1069.5 1391.42M1058 1364.53L1069.5 1391.42M1058 1364.53C1065.22 1363.76 1072.17 1361.81 1078.45 1358.22M1069.5 1391.42C1076.63 1390.88 1082.82 1389.18 1088 1386.88M1078.45 1358.22L1088 1386.88M1078.45 1358.22C1085.24 1354.35 1091.25 1348.55 1096 1340.27M735.719 1259.72C722.237 1344.06 725.646 1501.82 847.137 1458.22M735.719 1259.72C706.13 1289.12 677.877 1327.46 653.673 1376.72M847.137 1458.22C829.72 1486.18 815.448 1526.24 803.949 1571.22M653.673 1376.72C676.581 1483.72 738.707 1672.42 803.949 1571.22M653.673 1376.72C631.263 1422.34 612.323 1477.32 599.004 1543.22M803.949 1571.22C792.655 1615.41 784.035 1664.34 777.738 1711.22M599.004 1543.22C635.449 1631.72 722.218 1789.22 777.738 1711.22M599.004 1543.22C589.304 1591.23 582.585 1645.02 579.679 1705.22M777.738 1711.22C772.19 1752.53 768.445 1792.24 766.261 1825.72M579.679 1705.22C579.166 1715.86 578.772 1726.69 578.501 1737.72C578.298 1745.98 578.1 1754.11 577.904 1762.13C577.167 1792.3 576.472 1820.8 575.758 1847.72M579.679 1705.22C607.96 1769.06 684.869 1882.52 766.261 1825.72M766.261 1825.72C765.982 1830 765.729 1834.17 765.501 1838.22C761.328 1878.09 758.592 1915.54 757.124 1950.72M575.758 1847.72C606.587 1909.89 686.022 2017.52 757.124 1950.72M575.758 1847.72C574.283 1903.35 572.732 1952.24 570.585 1995.22M757.124 1950.72C756.582 1963.7 756.213 1976.36 756.007 1988.72C755.675 2009.27 755.93 2031.45 756.931 2054.22M570.585 1995.22C599.01 2041.39 676.075 2117.82 756.931 2054.22M570.585 1995.22C568.746 2032.06 566.469 2064.56 563.429 2093.22M756.931 2054.22C759.24 2106.78 765.522 2162.55 777.738 2208.96M563.429 2093.22C586.778 2155.22 662.327 2265.15 777.738 2208.96M563.429 2093.22C558.247 2142.09 550.848 2179.82 539.616 2208.96M777.738 2208.96C780.195 2218.29 782.891 2227.25 785.844 2235.72C816.064 2288.73 848.977 2374.74 829.4 2432.13M539.616 2208.96C525.92 2244.49 506.524 2267.24 478.501 2281.8M539.616 2208.96C643.079 2264.04 827.131 2376.47 829.4 2432.13M820.461 2450.72C826.909 2445.66 829.695 2439.37 829.4 2432.13M820.461 2450.72C824.193 2444.97 827.145 2438.74 829.4 2432.13M478.501 2281.8C566.973 2334.61 725.868 2450.42 653.673 2491.22M478.501 2281.8C454.051 2294.51 423.033 2300.99 383.501 2304.29M653.673 2491.22C584.741 2491.22 511.584 2491.22 441.587 2491.22M653.673 2491.22H441.587M383.501 2304.29C422.225 2356.6 488.056 2467.22 441.587 2491.22M383.501 2304.29C351.686 2306.95 314.358 2307.55 270.501 2307.69M441.587 2491.22H313.501M441.587 2491.22C396.969 2491.22 353.636 2491.22 313.501 2491.22M270.501 2307.69C299.168 2368.86 347.901 2491.22 313.501 2491.22M270.501 2307.69C257.689 2307.72 244.32 2307.72 230.369 2307.72M162.558 2307.69C182.372 2363.42 218.901 2478.29 206.501 2491.81M162.558 2307.69C112.397 2310.58 78.2071 2320.48 55.0008 2334.04M206.501 2491.81C174.669 2492.59 142.943 2493.11 114.501 2492.56M55.0008 2334.04C19.4139 2354.84 9.65579 2384.25 7.73811 2410.22C2.82566 2434.14 5.40078 2483.36 55.0008 2488.86C71.7693 2491.03 92.1186 2492.13 114.501 2492.56M55.0008 2334.04C87.0008 2374.33 143.701 2462.43 114.501 2492.56" stroke="black" stroke-width="11"/>
<path d="M1481 1357.12L1349.5 1387.12C1356.64 1386.23 1417.27 1445.33 1439 1472.39C1564.68 1498.12 1753.78 1531.27 1902.01 1544.73C1929.07 1501.49 1951.17 1454.43 1968.66 1408.28C1806 1436.65 1537.37 1456.02 1481 1357.12Z" fill="black" fill-opacity="0.5"/>
<path d="M1481 1357.12L1349.5 1387.12C1356.64 1386.23 1417.27 1445.33 1439 1472.39C1564.68 1498.12 1753.78 1531.27 1902.01 1544.73C1929.07 1501.49 1951.17 1454.43 1968.66 1408.28C1806 1436.65 1537.37 1456.02 1481 1357.12Z" fill="white"/>
<path d="M1481 1357.12L1349.5 1387.12C1356.64 1386.23 1417.27 1445.33 1439 1472.39C1564.68 1498.12 1753.78 1531.27 1902.01 1544.73C1929.07 1501.49 1951.17 1454.43 1968.66 1408.28C1806 1436.65 1537.37 1456.02 1481 1357.12Z" fill="#FAFF00"/>
<path d="M1481 1357.12L1349.5 1387.12C1356.64 1386.23 1417.27 1445.33 1439 1472.39C1564.68 1498.12 1753.78 1531.27 1902.01 1544.73C1929.07 1501.49 1951.17 1454.43 1968.66 1408.28C1806 1436.65 1537.37 1456.02 1481 1357.12Z" fill="black" fill-opacity="0.2"/>
<path d="M1481 1357.12L1349.5 1387.12C1356.64 1386.23 1417.27 1445.33 1439 1472.39C1564.68 1498.12 1753.78 1531.27 1902.01 1544.73C1929.07 1501.49 1951.17 1454.43 1968.66 1408.28C1806 1436.65 1537.37 1456.02 1481 1357.12Z" fill="white"/>
<path d="M2126.07 1510.62C2085.23 1473.01 2046.47 1438.77 2013.5 1410.62C2050.73 1456.41 2079.64 1500.29 2101.66 1541.96C2121.75 1535.57 2131.06 1525.43 2126.07 1510.62Z" fill="black" fill-opacity="0.5"/>
<path d="M2126.07 1510.62C2085.23 1473.01 2046.47 1438.77 2013.5 1410.62C2050.73 1456.41 2079.64 1500.29 2101.66 1541.96C2121.75 1535.57 2131.06 1525.43 2126.07 1510.62Z" fill="white"/>
<path d="M2126.07 1510.62C2085.23 1473.01 2046.47 1438.77 2013.5 1410.62C2050.73 1456.41 2079.64 1500.29 2101.66 1541.96C2121.75 1535.57 2131.06 1525.43 2126.07 1510.62Z" fill="#FAFF00"/>
<path d="M2126.07 1510.62C2085.23 1473.01 2046.47 1438.77 2013.5 1410.62C2050.73 1456.41 2079.64 1500.29 2101.66 1541.96C2121.75 1535.57 2131.06 1525.43 2126.07 1510.62Z" fill="black" fill-opacity="0.2"/>
<path d="M2126.07 1510.62C2085.23 1473.01 2046.47 1438.77 2013.5 1410.62C2050.73 1456.41 2079.64 1500.29 2101.66 1541.96C2121.75 1535.57 2131.06 1525.43 2126.07 1510.62Z" fill="white"/>
<path d="M1085.5 1445.62C1085.5 1445.62 1341.5 1388.12 1349.5 1387.12L1481 1357.12L1402.5 1223.66C1335.25 1255.37 1145.47 1395.5 1085.5 1445.62L1425.5 1315.12L1439 1336.12L1085.5 1445.62Z" fill="black" fill-opacity="0.5"/>
<path d="M1085.5 1445.62C1085.5 1445.62 1341.5 1388.12 1349.5 1387.12L1481 1357.12L1402.5 1223.66C1335.25 1255.37 1145.47 1395.5 1085.5 1445.62L1425.5 1315.12L1439 1336.12L1085.5 1445.62Z" fill="white"/>
<path d="M1085.5 1445.62C1085.5 1445.62 1341.5 1388.12 1349.5 1387.12L1481 1357.12L1402.5 1223.66C1335.25 1255.37 1145.47 1395.5 1085.5 1445.62L1425.5 1315.12L1439 1336.12L1085.5 1445.62Z" fill="#FAFF00"/>
<path d="M1085.5 1445.62C1085.5 1445.62 1341.5 1388.12 1349.5 1387.12L1481 1357.12L1402.5 1223.66C1335.25 1255.37 1145.47 1395.5 1085.5 1445.62L1425.5 1315.12L1439 1336.12L1085.5 1445.62Z" fill="black" fill-opacity="0.2"/>
<path d="M1085.5 1445.62C1085.5 1445.62 1341.5 1388.12 1349.5 1387.12L1481 1357.12L1402.5 1223.66C1335.25 1255.37 1145.47 1395.5 1085.5 1445.62L1425.5 1315.12L1439 1336.12L1085.5 1445.62Z" fill="#141414"/>
<path d="M1850.5 1104.62C1789.12 1071.02 1626.59 1099.29 1553 1118.12C1697.4 1103.72 1905.73 1196.45 1991.85 1244.62C1957.32 1151.11 1890.73 1112.85 1850.5 1104.62Z" fill="black" fill-opacity="0.5"/>
<path d="M1850.5 1104.62C1789.12 1071.02 1626.59 1099.29 1553 1118.12C1697.4 1103.72 1905.73 1196.45 1991.85 1244.62C1957.32 1151.11 1890.73 1112.85 1850.5 1104.62Z" fill="white"/>
<path d="M1850.5 1104.62C1789.12 1071.02 1626.59 1099.29 1553 1118.12C1697.4 1103.72 1905.73 1196.45 1991.85 1244.62C1957.32 1151.11 1890.73 1112.85 1850.5 1104.62Z" fill="#FAFF00"/>
<path d="M1850.5 1104.62C1789.12 1071.02 1626.59 1099.29 1553 1118.12C1697.4 1103.72 1905.73 1196.45 1991.85 1244.62C1957.32 1151.11 1890.73 1112.85 1850.5 1104.62Z" fill="black" fill-opacity="0.2"/>
<path d="M1850.5 1104.62C1789.12 1071.02 1626.59 1099.29 1553 1118.12C1697.4 1103.72 1905.73 1196.45 1991.85 1244.62C1957.32 1151.11 1890.73 1112.85 1850.5 1104.62Z" fill="white"/>
<path d="M1489 1735.62C1489 1723.9 1496.31 1613.57 1479.6 1541.12C1441.26 1597.85 1406.26 1684.47 1409.62 1777.7C1436.98 1782.22 1463.3 1784.64 1488.61 1785.15C1486.71 1768.15 1486.7 1751.54 1489 1735.62Z" fill="black" fill-opacity="0.5"/>
<path d="M1489 1735.62C1489 1723.9 1496.31 1613.57 1479.6 1541.12C1441.26 1597.85 1406.26 1684.47 1409.62 1777.7C1436.98 1782.22 1463.3 1784.64 1488.61 1785.15C1486.71 1768.15 1486.7 1751.54 1489 1735.62Z" fill="white"/>
<path d="M1489 1735.62C1489 1723.9 1496.31 1613.57 1479.6 1541.12C1441.26 1597.85 1406.26 1684.47 1409.62 1777.7C1436.98 1782.22 1463.3 1784.64 1488.61 1785.15C1486.71 1768.15 1486.7 1751.54 1489 1735.62Z" fill="#5B2702"/>
<path d="M1821 2167.88C1839.67 2175.79 1865.8 2213.22 1821 2299.62C1732.83 2326.95 1558.4 2389.32 1566 2420.12C1573.6 2450.92 1667.83 2398.95 1714 2369.12L1638.5 2457.12C1630.83 2481.2 1645.4 2493.21 1765 2348.62L1754 2502.12C1768.17 2507.77 1795.4 2487.17 1791 2359.62L1829.5 2322.62C1840.67 2309.64 1870.2 2269.07 1899 2210.65L1996.5 2237.62L1958 2307.62C1915.17 2322.95 1829.5 2356.72 1829.5 2369.12C1829.5 2384.62 1806 2547.12 1837.5 2502.12C1862.7 2466.12 1865.33 2403.12 1863.5 2376.12L1913 2348.62C1886 2410.12 1840.5 2531.42 1874.5 2524.62C1908.5 2517.82 1931.67 2404.45 1939 2348.62C1938 2422.45 1943.7 2570.12 1974.5 2570.12C2005.3 2570.12 1987.33 2414.45 1974.5 2336.62L2048.5 2212.77C1974.17 2201.73 1891.79 2186.63 1821 2167.88Z" fill="black" fill-opacity="0.5"/>
<path d="M1821 2167.88C1839.67 2175.79 1865.8 2213.22 1821 2299.62C1732.83 2326.95 1558.4 2389.32 1566 2420.12C1573.6 2450.92 1667.83 2398.95 1714 2369.12L1638.5 2457.12C1630.83 2481.2 1645.4 2493.21 1765 2348.62L1754 2502.12C1768.17 2507.77 1795.4 2487.17 1791 2359.62L1829.5 2322.62C1840.67 2309.64 1870.2 2269.07 1899 2210.65L1996.5 2237.62L1958 2307.62C1915.17 2322.95 1829.5 2356.72 1829.5 2369.12C1829.5 2384.62 1806 2547.12 1837.5 2502.12C1862.7 2466.12 1865.33 2403.12 1863.5 2376.12L1913 2348.62C1886 2410.12 1840.5 2531.42 1874.5 2524.62C1908.5 2517.82 1931.67 2404.45 1939 2348.62C1938 2422.45 1943.7 2570.12 1974.5 2570.12C2005.3 2570.12 1987.33 2414.45 1974.5 2336.62L2048.5 2212.77C1974.17 2201.73 1891.79 2186.63 1821 2167.88Z" fill="white"/>
<path d="M1821 2167.88C1839.67 2175.79 1865.8 2213.22 1821 2299.62C1732.83 2326.95 1558.4 2389.32 1566 2420.12C1573.6 2450.92 1667.83 2398.95 1714 2369.12L1638.5 2457.12C1630.83 2481.2 1645.4 2493.21 1765 2348.62L1754 2502.12C1768.17 2507.77 1795.4 2487.17 1791 2359.62L1829.5 2322.62C1840.67 2309.64 1870.2 2269.07 1899 2210.65L1996.5 2237.62L1958 2307.62C1915.17 2322.95 1829.5 2356.72 1829.5 2369.12C1829.5 2384.62 1806 2547.12 1837.5 2502.12C1862.7 2466.12 1865.33 2403.12 1863.5 2376.12L1913 2348.62C1886 2410.12 1840.5 2531.42 1874.5 2524.62C1908.5 2517.82 1931.67 2404.45 1939 2348.62C1938 2422.45 1943.7 2570.12 1974.5 2570.12C2005.3 2570.12 1987.33 2414.45 1974.5 2336.62L2048.5 2212.77C1974.17 2201.73 1891.79 2186.63 1821 2167.88Z" fill="#FAFF00"/>
<path d="M1821 2167.88C1839.67 2175.79 1865.8 2213.22 1821 2299.62C1732.83 2326.95 1558.4 2389.32 1566 2420.12C1573.6 2450.92 1667.83 2398.95 1714 2369.12L1638.5 2457.12C1630.83 2481.2 1645.4 2493.21 1765 2348.62L1754 2502.12C1768.17 2507.77 1795.4 2487.17 1791 2359.62L1829.5 2322.62C1840.67 2309.64 1870.2 2269.07 1899 2210.65L1996.5 2237.62L1958 2307.62C1915.17 2322.95 1829.5 2356.72 1829.5 2369.12C1829.5 2384.62 1806 2547.12 1837.5 2502.12C1862.7 2466.12 1865.33 2403.12 1863.5 2376.12L1913 2348.62C1886 2410.12 1840.5 2531.42 1874.5 2524.62C1908.5 2517.82 1931.67 2404.45 1939 2348.62C1938 2422.45 1943.7 2570.12 1974.5 2570.12C2005.3 2570.12 1987.33 2414.45 1974.5 2336.62L2048.5 2212.77C1974.17 2201.73 1891.79 2186.63 1821 2167.88Z" fill="#121210"/>
<path d="M1439 1472.39C1441.62 1475.65 1443.67 1478.45 1445 1480.62C1461.95 1488.3 1472.77 1511.56 1479.6 1541.12C1496.31 1613.57 1489 1723.9 1489 1735.62C1486.7 1751.54 1486.71 1768.15 1488.61 1785.15C1682.59 1789.07 1816.85 1680.81 1902.01 1544.73C1753.78 1531.27 1564.68 1498.12 1439 1472.39Z" fill="black" fill-opacity="0.5"/>
<path d="M1439 1472.39C1441.62 1475.65 1443.67 1478.45 1445 1480.62C1461.95 1488.3 1472.77 1511.56 1479.6 1541.12C1496.31 1613.57 1489 1723.9 1489 1735.62C1486.7 1751.54 1486.71 1768.15 1488.61 1785.15C1682.59 1789.07 1816.85 1680.81 1902.01 1544.73C1753.78 1531.27 1564.68 1498.12 1439 1472.39Z" fill="white"/>
<path d="M1439 1472.39C1441.62 1475.65 1443.67 1478.45 1445 1480.62C1461.95 1488.3 1472.77 1511.56 1479.6 1541.12C1496.31 1613.57 1489 1723.9 1489 1735.62C1486.7 1751.54 1486.71 1768.15 1488.61 1785.15C1682.59 1789.07 1816.85 1680.81 1902.01 1544.73C1753.78 1531.27 1564.68 1498.12 1439 1472.39Z" fill="#FAFF00"/>
<path d="M1439 1472.39C1441.62 1475.65 1443.67 1478.45 1445 1480.62C1461.95 1488.3 1472.77 1511.56 1479.6 1541.12C1496.31 1613.57 1489 1723.9 1489 1735.62C1486.7 1751.54 1486.71 1768.15 1488.61 1785.15C1682.59 1789.07 1816.85 1680.81 1902.01 1544.73C1753.78 1531.27 1564.68 1498.12 1439 1472.39Z" fill="black" fill-opacity="0.2"/>
<path d="M1439 1472.39C1441.62 1475.65 1443.67 1478.45 1445 1480.62C1461.95 1488.3 1472.77 1511.56 1479.6 1541.12C1496.31 1613.57 1489 1723.9 1489 1735.62C1486.7 1751.54 1486.71 1768.15 1488.61 1785.15C1682.59 1789.07 1816.85 1680.81 1902.01 1544.73C1753.78 1531.27 1564.68 1498.12 1439 1472.39Z" fill="#FAFF00"/>
<path d="M2013.5 1410.62C2013.66 1407.25 2013.79 1403.92 2013.9 1400.62C2000.08 1403.52 1984.9 1405.45 1968.66 1408.28C1951.17 1454.43 1929.07 1501.49 1902.01 1544.73C1816.85 1680.81 1682.59 1789.07 1488.61 1785.15C1463.3 1784.64 1436.98 1782.22 1409.62 1777.7C1223.61 1747 989.538 1619.42 700 1336.12C703.334 1364.3 707.658 1393.54 713.031 1423.5C719.895 1461.77 728.47 1501.22 738.88 1541.12C751.369 1588.99 766.499 1637.53 784.48 1685.5C919.419 2045.49 1214.96 2373.5 1760.48 2149.88L1760.56 2149.84C1861.75 2108.35 1976.04 2043.26 2095 1960.5C2152.22 1902.87 2213.3 1753.22 2101.66 1541.96C2079.64 1500.29 2050.73 1456.41 2013.5 1410.62Z" fill="black" fill-opacity="0.5"/>
<path d="M2013.5 1410.62C2013.66 1407.25 2013.79 1403.92 2013.9 1400.62C2000.08 1403.52 1984.9 1405.45 1968.66 1408.28C1951.17 1454.43 1929.07 1501.49 1902.01 1544.73C1816.85 1680.81 1682.59 1789.07 1488.61 1785.15C1463.3 1784.64 1436.98 1782.22 1409.62 1777.7C1223.61 1747 989.538 1619.42 700 1336.12C703.334 1364.3 707.658 1393.54 713.031 1423.5C719.895 1461.77 728.47 1501.22 738.88 1541.12C751.369 1588.99 766.499 1637.53 784.48 1685.5C919.419 2045.49 1214.96 2373.5 1760.48 2149.88L1760.56 2149.84C1861.75 2108.35 1976.04 2043.26 2095 1960.5C2152.22 1902.87 2213.3 1753.22 2101.66 1541.96C2079.64 1500.29 2050.73 1456.41 2013.5 1410.62Z" fill="white"/>
<path d="M2013.5 1410.62C2013.66 1407.25 2013.79 1403.92 2013.9 1400.62C2000.08 1403.52 1984.9 1405.45 1968.66 1408.28C1951.17 1454.43 1929.07 1501.49 1902.01 1544.73C1816.85 1680.81 1682.59 1789.07 1488.61 1785.15C1463.3 1784.64 1436.98 1782.22 1409.62 1777.7C1223.61 1747 989.538 1619.42 700 1336.12C703.334 1364.3 707.658 1393.54 713.031 1423.5C719.895 1461.77 728.47 1501.22 738.88 1541.12C751.369 1588.99 766.499 1637.53 784.48 1685.5C919.419 2045.49 1214.96 2373.5 1760.48 2149.88L1760.56 2149.84C1861.75 2108.35 1976.04 2043.26 2095 1960.5C2152.22 1902.87 2213.3 1753.22 2101.66 1541.96C2079.64 1500.29 2050.73 1456.41 2013.5 1410.62Z" fill="#FAFF00"/>
<path d="M2013.5 1410.62C2013.66 1407.25 2013.79 1403.92 2013.9 1400.62C2000.08 1403.52 1984.9 1405.45 1968.66 1408.28C1951.17 1454.43 1929.07 1501.49 1902.01 1544.73C1816.85 1680.81 1682.59 1789.07 1488.61 1785.15C1463.3 1784.64 1436.98 1782.22 1409.62 1777.7C1223.61 1747 989.538 1619.42 700 1336.12C703.334 1364.3 707.658 1393.54 713.031 1423.5C719.895 1461.77 728.47 1501.22 738.88 1541.12C751.369 1588.99 766.499 1637.53 784.48 1685.5C919.419 2045.49 1214.96 2373.5 1760.48 2149.88L1760.56 2149.84C1861.75 2108.35 1976.04 2043.26 2095 1960.5C2152.22 1902.87 2213.3 1753.22 2101.66 1541.96C2079.64 1500.29 2050.73 1456.41 2013.5 1410.62Z" fill="black" fill-opacity="0.2"/>
<path d="M2013.5 1410.62C2013.66 1407.25 2013.79 1403.92 2013.9 1400.62C2000.08 1403.52 1984.9 1405.45 1968.66 1408.28C1951.17 1454.43 1929.07 1501.49 1902.01 1544.73C1816.85 1680.81 1682.59 1789.07 1488.61 1785.15C1463.3 1784.64 1436.98 1782.22 1409.62 1777.7C1223.61 1747 989.538 1619.42 700 1336.12C703.334 1364.3 707.658 1393.54 713.031 1423.5C719.895 1461.77 728.47 1501.22 738.88 1541.12C751.369 1588.99 766.499 1637.53 784.48 1685.5C919.419 2045.49 1214.96 2373.5 1760.48 2149.88L1760.56 2149.84C1861.75 2108.35 1976.04 2043.26 2095 1960.5C2152.22 1902.87 2213.3 1753.22 2101.66 1541.96C2079.64 1500.29 2050.73 1456.41 2013.5 1410.62Z" fill="#783402"/>
<path d="M1553 1118.12C1490.01 1126.54 1432.35 1174.34 1412.32 1213.12L1402.5 1223.66L1481 1357.12C1537.37 1456.02 1806 1436.65 1968.66 1408.28C1984.9 1405.45 2000.08 1403.52 2013.9 1400.62C2015.22 1357.91 2011.56 1319.78 2004.41 1287.62C2000.98 1272.16 1996.73 1257.85 1991.85 1244.62C1905.73 1196.45 1697.4 1103.72 1553 1118.12Z" fill="black" fill-opacity="0.5"/>
<path d="M1553 1118.12C1490.01 1126.54 1432.35 1174.34 1412.32 1213.12L1402.5 1223.66L1481 1357.12C1537.37 1456.02 1806 1436.65 1968.66 1408.28C1984.9 1405.45 2000.08 1403.52 2013.9 1400.62C2015.22 1357.91 2011.56 1319.78 2004.41 1287.62C2000.98 1272.16 1996.73 1257.85 1991.85 1244.62C1905.73 1196.45 1697.4 1103.72 1553 1118.12Z" fill="white"/>
<path d="M1553 1118.12C1490.01 1126.54 1432.35 1174.34 1412.32 1213.12L1402.5 1223.66L1481 1357.12C1537.37 1456.02 1806 1436.65 1968.66 1408.28C1984.9 1405.45 2000.08 1403.52 2013.9 1400.62C2015.22 1357.91 2011.56 1319.78 2004.41 1287.62C2000.98 1272.16 1996.73 1257.85 1991.85 1244.62C1905.73 1196.45 1697.4 1103.72 1553 1118.12Z" fill="#FAFF00"/>
<path d="M1553 1118.12C1490.01 1126.54 1432.35 1174.34 1412.32 1213.12L1402.5 1223.66L1481 1357.12C1537.37 1456.02 1806 1436.65 1968.66 1408.28C1984.9 1405.45 2000.08 1403.52 2013.9 1400.62C2015.22 1357.91 2011.56 1319.78 2004.41 1287.62C2000.98 1272.16 1996.73 1257.85 1991.85 1244.62C1905.73 1196.45 1697.4 1103.72 1553 1118.12Z" fill="black" fill-opacity="0.2"/>
<path d="M1553 1118.12C1490.01 1126.54 1432.35 1174.34 1412.32 1213.12L1402.5 1223.66L1481 1357.12C1537.37 1456.02 1806 1436.65 1968.66 1408.28C1984.9 1405.45 2000.08 1403.52 2013.9 1400.62C2015.22 1357.91 2011.56 1319.78 2004.41 1287.62C2000.98 1272.16 1996.73 1257.85 1991.85 1244.62C1905.73 1196.45 1697.4 1103.72 1553 1118.12Z" fill="#1C1C19"/>
<path d="M1765 2151.39C1782.49 2157.16 1801.3 2162.66 1821 2167.88C1891.79 2186.63 1974.17 2201.73 2048.5 2212.77C2087.36 2218.55 2168.16 2216.55 2217.5 2217.38C2229.86 2217.59 2240.24 2217.97 2247.5 2218.7C2264.45 2215.7 2280.44 2212.39 2295.5 2208.8C2314.04 2204.38 2331.18 2199.54 2347 2194.33C2356.28 2191.27 2365.11 2188.09 2373.5 2184.78C2386.53 2179.65 2398.51 2174.23 2409.5 2168.56C2424.65 2160.73 2437.93 2152.43 2449.5 2143.75C2462.14 2134.25 2472.74 2124.3 2481.51 2114C2490.87 2103.01 2498.15 2091.62 2503.61 2080C2503.82 2079.54 2504.04 2079.08 2504.25 2078.62C2511.05 2063.7 2514.89 2048.39 2516.28 2033C2517.42 2020.5 2516.95 2007.94 2515.18 1995.5C2507.96 1945.02 2479.16 1896.46 2448.41 1860.93L2444.65 1858.12C2443.63 1856.49 2442.58 1854.86 2441.52 1853.21C2377.66 1754.28 2243.29 1618.57 2126.07 1510.62C2131.06 1525.43 2121.75 1535.57 2101.66 1541.96C2213.3 1753.22 2152.22 1902.87 2095 1960.5C1976.04 2043.26 1861.75 2108.35 1760.56 2149.84C1762.04 2150.36 1763.52 2150.87 1765 2151.39Z" fill="black" fill-opacity="0.5"/>
<path d="M1765 2151.39C1782.49 2157.16 1801.3 2162.66 1821 2167.88C1891.79 2186.63 1974.17 2201.73 2048.5 2212.77C2087.36 2218.55 2168.16 2216.55 2217.5 2217.38C2229.86 2217.59 2240.24 2217.97 2247.5 2218.7C2264.45 2215.7 2280.44 2212.39 2295.5 2208.8C2314.04 2204.38 2331.18 2199.54 2347 2194.33C2356.28 2191.27 2365.11 2188.09 2373.5 2184.78C2386.53 2179.65 2398.51 2174.23 2409.5 2168.56C2424.65 2160.73 2437.93 2152.43 2449.5 2143.75C2462.14 2134.25 2472.74 2124.3 2481.51 2114C2490.87 2103.01 2498.15 2091.62 2503.61 2080C2503.82 2079.54 2504.04 2079.08 2504.25 2078.62C2511.05 2063.7 2514.89 2048.39 2516.28 2033C2517.42 2020.5 2516.95 2007.94 2515.18 1995.5C2507.96 1945.02 2479.16 1896.46 2448.41 1860.93L2444.65 1858.12C2443.63 1856.49 2442.58 1854.86 2441.52 1853.21C2377.66 1754.28 2243.29 1618.57 2126.07 1510.62C2131.06 1525.43 2121.75 1535.57 2101.66 1541.96C2213.3 1753.22 2152.22 1902.87 2095 1960.5C1976.04 2043.26 1861.75 2108.35 1760.56 2149.84C1762.04 2150.36 1763.52 2150.87 1765 2151.39Z" fill="white"/>
<path d="M1765 2151.39C1782.49 2157.16 1801.3 2162.66 1821 2167.88C1891.79 2186.63 1974.17 2201.73 2048.5 2212.77C2087.36 2218.55 2168.16 2216.55 2217.5 2217.38C2229.86 2217.59 2240.24 2217.97 2247.5 2218.7C2264.45 2215.7 2280.44 2212.39 2295.5 2208.8C2314.04 2204.38 2331.18 2199.54 2347 2194.33C2356.28 2191.27 2365.11 2188.09 2373.5 2184.78C2386.53 2179.65 2398.51 2174.23 2409.5 2168.56C2424.65 2160.73 2437.93 2152.43 2449.5 2143.75C2462.14 2134.25 2472.74 2124.3 2481.51 2114C2490.87 2103.01 2498.15 2091.62 2503.61 2080C2503.82 2079.54 2504.04 2079.08 2504.25 2078.62C2511.05 2063.7 2514.89 2048.39 2516.28 2033C2517.42 2020.5 2516.95 2007.94 2515.18 1995.5C2507.96 1945.02 2479.16 1896.46 2448.41 1860.93L2444.65 1858.12C2443.63 1856.49 2442.58 1854.86 2441.52 1853.21C2377.66 1754.28 2243.29 1618.57 2126.07 1510.62C2131.06 1525.43 2121.75 1535.57 2101.66 1541.96C2213.3 1753.22 2152.22 1902.87 2095 1960.5C1976.04 2043.26 1861.75 2108.35 1760.56 2149.84C1762.04 2150.36 1763.52 2150.87 1765 2151.39Z" fill="#FAFF00"/>
<path d="M1765 2151.39C1782.49 2157.16 1801.3 2162.66 1821 2167.88C1891.79 2186.63 1974.17 2201.73 2048.5 2212.77C2087.36 2218.55 2168.16 2216.55 2217.5 2217.38C2229.86 2217.59 2240.24 2217.97 2247.5 2218.7C2264.45 2215.7 2280.44 2212.39 2295.5 2208.8C2314.04 2204.38 2331.18 2199.54 2347 2194.33C2356.28 2191.27 2365.11 2188.09 2373.5 2184.78C2386.53 2179.65 2398.51 2174.23 2409.5 2168.56C2424.65 2160.73 2437.93 2152.43 2449.5 2143.75C2462.14 2134.25 2472.74 2124.3 2481.51 2114C2490.87 2103.01 2498.15 2091.62 2503.61 2080C2503.82 2079.54 2504.04 2079.08 2504.25 2078.62C2511.05 2063.7 2514.89 2048.39 2516.28 2033C2517.42 2020.5 2516.95 2007.94 2515.18 1995.5C2507.96 1945.02 2479.16 1896.46 2448.41 1860.93L2444.65 1858.12C2443.63 1856.49 2442.58 1854.86 2441.52 1853.21C2377.66 1754.28 2243.29 1618.57 2126.07 1510.62C2131.06 1525.43 2121.75 1535.57 2101.66 1541.96C2213.3 1753.22 2152.22 1902.87 2095 1960.5C1976.04 2043.26 1861.75 2108.35 1760.56 2149.84C1762.04 2150.36 1763.52 2150.87 1765 2151.39Z" fill="black" fill-opacity="0.2"/>
<path d="M1765 2151.39C1782.49 2157.16 1801.3 2162.66 1821 2167.88C1891.79 2186.63 1974.17 2201.73 2048.5 2212.77C2087.36 2218.55 2168.16 2216.55 2217.5 2217.38C2229.86 2217.59 2240.24 2217.97 2247.5 2218.7C2264.45 2215.7 2280.44 2212.39 2295.5 2208.8C2314.04 2204.38 2331.18 2199.54 2347 2194.33C2356.28 2191.27 2365.11 2188.09 2373.5 2184.78C2386.53 2179.65 2398.51 2174.23 2409.5 2168.56C2424.65 2160.73 2437.93 2152.43 2449.5 2143.75C2462.14 2134.25 2472.74 2124.3 2481.51 2114C2490.87 2103.01 2498.15 2091.62 2503.61 2080C2503.82 2079.54 2504.04 2079.08 2504.25 2078.62C2511.05 2063.7 2514.89 2048.39 2516.28 2033C2517.42 2020.5 2516.95 2007.94 2515.18 1995.5C2507.96 1945.02 2479.16 1896.46 2448.41 1860.93L2444.65 1858.12C2443.63 1856.49 2442.58 1854.86 2441.52 1853.21C2377.66 1754.28 2243.29 1618.57 2126.07 1510.62C2131.06 1525.43 2121.75 1535.57 2101.66 1541.96C2213.3 1753.22 2152.22 1902.87 2095 1960.5C1976.04 2043.26 1861.75 2108.35 1760.56 2149.84C1762.04 2150.36 1763.52 2150.87 1765 2151.39Z" fill="#FAFF00"/>
<path d="M2939.5 2421.12L2481.51 2114C2472.74 2124.3 2462.14 2134.25 2449.5 2143.75L2916 2451.12C2944.4 2453.92 2943.5 2432.29 2939.5 2421.12Z" fill="black" fill-opacity="0.5"/>
<path d="M2939.5 2421.12L2481.51 2114C2472.74 2124.3 2462.14 2134.25 2449.5 2143.75L2916 2451.12C2944.4 2453.92 2943.5 2432.29 2939.5 2421.12Z" fill="white"/>
<path d="M2939.5 2421.12L2481.51 2114C2472.74 2124.3 2462.14 2134.25 2449.5 2143.75L2916 2451.12C2944.4 2453.92 2943.5 2432.29 2939.5 2421.12Z" fill="#FAFF00"/>
<path d="M2939.5 2421.12L2481.51 2114C2472.74 2124.3 2462.14 2134.25 2449.5 2143.75L2916 2451.12C2944.4 2453.92 2943.5 2432.29 2939.5 2421.12Z" fill="black" fill-opacity="0.2"/>
<path d="M2939.5 2421.12L2481.51 2114C2472.74 2124.3 2462.14 2134.25 2449.5 2143.75L2916 2451.12C2944.4 2453.92 2943.5 2432.29 2939.5 2421.12Z" fill="#151513"/>
<path d="M2966 2343.62L2516.28 2033C2514.89 2048.39 2511.05 2063.7 2504.25 2078.62C2504.04 2079.08 2503.82 2079.54 2503.61 2080L2939.5 2380.62C2986.7 2393.82 2976.83 2361.45 2966 2343.62Z" fill="black" fill-opacity="0.5"/>
<path d="M2966 2343.62L2516.28 2033C2514.89 2048.39 2511.05 2063.7 2504.25 2078.62C2504.04 2079.08 2503.82 2079.54 2503.61 2080L2939.5 2380.62C2986.7 2393.82 2976.83 2361.45 2966 2343.62Z" fill="white"/>
<path d="M2966 2343.62L2516.28 2033C2514.89 2048.39 2511.05 2063.7 2504.25 2078.62C2504.04 2079.08 2503.82 2079.54 2503.61 2080L2939.5 2380.62C2986.7 2393.82 2976.83 2361.45 2966 2343.62Z" fill="#FAFF00"/>
<path d="M2966 2343.62L2516.28 2033C2514.89 2048.39 2511.05 2063.7 2504.25 2078.62C2504.04 2079.08 2503.82 2079.54 2503.61 2080L2939.5 2380.62C2986.7 2393.82 2976.83 2361.45 2966 2343.62Z" fill="black" fill-opacity="0.2"/>
<path d="M2966 2343.62L2516.28 2033C2514.89 2048.39 2511.05 2063.7 2504.25 2078.62C2504.04 2079.08 2503.82 2079.54 2503.61 2080L2939.5 2380.62C2986.7 2393.82 2976.83 2361.45 2966 2343.62Z" fill="#1B1B19"/>
<path d="M2981 2330.62C3059.8 2355.02 3031.83 2306.12 3008 2278.62L2726.33 2068.37L2448.41 1860.93C2479.16 1896.46 2507.96 1945.02 2515.18 1995.5L2981 2330.62Z" fill="black" fill-opacity="0.5"/>
<path d="M2981 2330.62C3059.8 2355.02 3031.83 2306.12 3008 2278.62L2726.33 2068.37L2448.41 1860.93C2479.16 1896.46 2507.96 1945.02 2515.18 1995.5L2981 2330.62Z" fill="white"/>
<path d="M2981 2330.62C3059.8 2355.02 3031.83 2306.12 3008 2278.62L2726.33 2068.37L2448.41 1860.93C2479.16 1896.46 2507.96 1945.02 2515.18 1995.5L2981 2330.62Z" fill="#FAFF00"/>
<path d="M2981 2330.62C3059.8 2355.02 3031.83 2306.12 3008 2278.62L2726.33 2068.37L2448.41 1860.93C2479.16 1896.46 2507.96 1945.02 2515.18 1995.5L2981 2330.62Z" fill="black" fill-opacity="0.2"/>
<path d="M2981 2330.62C3059.8 2355.02 3031.83 2306.12 3008 2278.62L2726.33 2068.37L2448.41 1860.93C2479.16 1896.46 2507.96 1945.02 2515.18 1995.5L2981 2330.62Z" fill="#1B1B19"/>
<path d="M2880.5 2481.12L2409.5 2168.56C2398.51 2174.23 2386.53 2179.65 2373.5 2184.78L2852 2509.62C2876 2532.42 2881 2500.12 2880.5 2481.12Z" fill="black" fill-opacity="0.5"/>
<path d="M2880.5 2481.12L2409.5 2168.56C2398.51 2174.23 2386.53 2179.65 2373.5 2184.78L2852 2509.62C2876 2532.42 2881 2500.12 2880.5 2481.12Z" fill="white"/>
<path d="M2880.5 2481.12L2409.5 2168.56C2398.51 2174.23 2386.53 2179.65 2373.5 2184.78L2852 2509.62C2876 2532.42 2881 2500.12 2880.5 2481.12Z" fill="#FAFF00"/>
<path d="M2880.5 2481.12L2409.5 2168.56C2398.51 2174.23 2386.53 2179.65 2373.5 2184.78L2852 2509.62C2876 2532.42 2881 2500.12 2880.5 2481.12Z" fill="black" fill-opacity="0.2"/>
<path d="M2880.5 2481.12L2409.5 2168.56C2398.51 2174.23 2386.53 2179.65 2373.5 2184.78L2852 2509.62C2876 2532.42 2881 2500.12 2880.5 2481.12Z" fill="#1B1B18"/>
<path d="M2820.5 2524.62L2347 2194.33C2331.18 2199.54 2314.04 2204.38 2295.5 2208.8C2445.17 2316.29 2761.2 2536.12 2792 2548.12C2822.8 2560.12 2823.83 2537.45 2820.5 2524.62Z" fill="black" fill-opacity="0.5"/>
<path d="M2820.5 2524.62L2347 2194.33C2331.18 2199.54 2314.04 2204.38 2295.5 2208.8C2445.17 2316.29 2761.2 2536.12 2792 2548.12C2822.8 2560.12 2823.83 2537.45 2820.5 2524.62Z" fill="white"/>
<path d="M2820.5 2524.62L2347 2194.33C2331.18 2199.54 2314.04 2204.38 2295.5 2208.8C2445.17 2316.29 2761.2 2536.12 2792 2548.12C2822.8 2560.12 2823.83 2537.45 2820.5 2524.62Z" fill="#FAFF00"/>
<path d="M2820.5 2524.62L2347 2194.33C2331.18 2199.54 2314.04 2204.38 2295.5 2208.8C2445.17 2316.29 2761.2 2536.12 2792 2548.12C2822.8 2560.12 2823.83 2537.45 2820.5 2524.62Z" fill="black" fill-opacity="0.2"/>
<path d="M2820.5 2524.62L2347 2194.33C2331.18 2199.54 2314.04 2204.38 2295.5 2208.8C2445.17 2316.29 2761.2 2536.12 2792 2548.12C2822.8 2560.12 2823.83 2537.45 2820.5 2524.62Z" fill="#23231E"/>
<path d="M2748.5 2548.12L2247.5 2218.7C2240.24 2217.97 2229.86 2217.59 2217.5 2217.38L2715 2570.12C2748.6 2587.72 2751.33 2562.79 2748.5 2548.12Z" fill="black" fill-opacity="0.5"/>
<path d="M2748.5 2548.12L2247.5 2218.7C2240.24 2217.97 2229.86 2217.59 2217.5 2217.38L2715 2570.12C2748.6 2587.72 2751.33 2562.79 2748.5 2548.12Z" fill="white"/>
<path d="M2748.5 2548.12L2247.5 2218.7C2240.24 2217.97 2229.86 2217.59 2217.5 2217.38L2715 2570.12C2748.6 2587.72 2751.33 2562.79 2748.5 2548.12Z" fill="#FAFF00"/>
<path d="M2748.5 2548.12L2247.5 2218.7C2240.24 2217.97 2229.86 2217.59 2217.5 2217.38L2715 2570.12C2748.6 2587.72 2751.33 2562.79 2748.5 2548.12Z" fill="black" fill-opacity="0.2"/>
<path d="M2748.5 2548.12L2247.5 2218.7C2240.24 2217.97 2229.86 2217.59 2217.5 2217.38L2715 2570.12C2748.6 2587.72 2751.33 2562.79 2748.5 2548.12Z" fill="#242421"/>
<path d="M2013.5 1410.62C2013.66 1407.25 2013.79 1403.92 2013.9 1400.62M2013.5 1410.62C2046.47 1438.77 2085.23 1473.01 2126.07 1510.62M2013.5 1410.62C2050.73 1456.41 2079.64 1500.29 2101.66 1541.96M2247.5 2218.7L2748.5 2548.12C2751.33 2562.79 2748.6 2587.72 2715 2570.12L2217.5 2217.38M2247.5 2218.7C2240.24 2217.97 2229.86 2217.59 2217.5 2217.38M2247.5 2218.7C2285.31 2212 2318.32 2203.78 2347 2194.33M2247.5 2218.7C2264.45 2215.7 2280.44 2212.39 2295.5 2208.8M2247.5 2218.7C2403.07 2191.12 2477.18 2137.93 2504.25 2078.62M1349.5 1387.12C1341.5 1388.12 1085.5 1445.62 1085.5 1445.62M1349.5 1387.12L1481 1357.12M1349.5 1387.12C1356.64 1386.23 1417.27 1445.33 1439 1472.39M1085.5 1445.62C1145.47 1395.5 1335.25 1255.37 1402.5 1223.66M1085.5 1445.62L1439 1336.12L1425.5 1315.12L1085.5 1445.62ZM1553 1118.12C1626.59 1099.29 1789.12 1071.02 1850.5 1104.62C1890.73 1112.85 1957.32 1151.11 1991.85 1244.62M1553 1118.12C1490.01 1126.54 1432.35 1174.34 1412.32 1213.12L1402.5 1223.66M1553 1118.12C1697.4 1103.72 1905.73 1196.45 1991.85 1244.62M1402.5 1223.66L1481 1357.12M2013.9 1400.62C2015.22 1357.91 2011.56 1319.78 2004.41 1287.62C2000.98 1272.16 1996.73 1257.85 1991.85 1244.62M2013.9 1400.62C2000.08 1403.52 1984.9 1405.45 1968.66 1408.28M1481 1357.12C1537.37 1456.02 1806 1436.65 1968.66 1408.28M1439 1472.39C1441.62 1475.65 1443.67 1478.45 1445 1480.62C1461.95 1488.3 1472.77 1511.56 1479.6 1541.12M1439 1472.39C1564.68 1498.12 1753.78 1531.27 1902.01 1544.73M2126.07 1510.62C2131.06 1525.43 2121.75 1535.57 2101.66 1541.96M2126.07 1510.62C2243.29 1618.57 2377.66 1754.28 2441.52 1853.21M1479.6 1541.12C1496.31 1613.57 1489 1723.9 1489 1735.62C1486.7 1751.54 1486.71 1768.15 1488.61 1785.15M1479.6 1541.12C1441.26 1597.85 1406.26 1684.47 1409.62 1777.7M1765 2151.39C1782.49 2157.16 1801.3 2162.66 1821 2167.88M1765 2151.39C1763.52 2150.87 1762.04 2150.36 1760.56 2149.84M1765 2151.39C1763.48 2150.88 1761.97 2150.38 1760.48 2149.88M2515.18 1995.5L2981 2330.62C3059.8 2355.02 3031.83 2306.12 3008 2278.62L2726.33 2068.37L2448.41 1860.93M2515.18 1995.5C2516.95 2007.94 2517.42 2020.5 2516.28 2033M2515.18 1995.5C2507.96 1945.02 2479.16 1896.46 2448.41 1860.93M2516.28 2033L2966 2343.62C2976.83 2361.45 2986.7 2393.82 2939.5 2380.62L2503.61 2080M2516.28 2033C2514.89 2048.39 2511.05 2063.7 2504.25 2078.62M2503.61 2080C2498.15 2091.62 2490.87 2103.01 2481.51 2114M2503.61 2080C2503.82 2079.54 2504.04 2079.08 2504.25 2078.62M2481.51 2114L2939.5 2421.12C2943.5 2432.29 2944.4 2453.92 2916 2451.12L2449.5 2143.75M2481.51 2114C2472.74 2124.3 2462.14 2134.25 2449.5 2143.75M2481.51 2114C2491.24 2102.57 2498.72 2090.72 2504.25 2078.62M2449.5 2143.75C2437.93 2152.43 2424.65 2160.73 2409.5 2168.56M2409.5 2168.56L2880.5 2481.12C2881 2500.12 2876 2532.42 2852 2509.62L2373.5 2184.78M2409.5 2168.56C2398.51 2174.23 2386.53 2179.65 2373.5 2184.78M2373.5 2184.78C2365.11 2188.09 2356.28 2191.27 2347 2194.33M2347 2194.33L2820.5 2524.62C2823.83 2537.45 2822.8 2560.12 2792 2548.12C2761.2 2536.12 2445.17 2316.29 2295.5 2208.8M2347 2194.33C2331.18 2199.54 2314.04 2204.38 2295.5 2208.8M1821 2167.88C1839.67 2175.79 1865.8 2213.22 1821 2299.62C1732.83 2326.95 1558.4 2389.32 1566 2420.12C1573.6 2450.92 1667.83 2398.95 1714 2369.12L1638.5 2457.12C1630.83 2481.2 1645.4 2493.21 1765 2348.62L1754 2502.12C1768.17 2507.76 1795.4 2487.17 1791 2359.62L1829.5 2322.62C1840.67 2309.64 1870.2 2269.07 1899 2210.65L1996.5 2237.62L1958 2307.62C1915.17 2322.95 1829.5 2356.72 1829.5 2369.12C1829.5 2384.62 1806 2547.12 1837.5 2502.12C1862.7 2466.12 1865.33 2403.12 1863.5 2376.12L1913 2348.62C1886 2410.12 1840.5 2531.42 1874.5 2524.62C1908.5 2517.82 1931.67 2404.45 1939 2348.62C1938 2422.45 1943.7 2570.12 1974.5 2570.12C2005.3 2570.12 1987.33 2414.45 1974.5 2336.62L2048.5 2212.77M1821 2167.88C1891.79 2186.63 1974.17 2201.73 2048.5 2212.77M2048.5 2212.77C2087.36 2218.55 2168.16 2216.55 2217.5 2217.38M1902.01 1544.73C1816.85 1680.81 1682.59 1789.07 1488.61 1785.15M1902.01 1544.73C1929.07 1501.49 1951.17 1454.43 1968.66 1408.28M1488.61 1785.15C1463.3 1784.64 1436.98 1782.22 1409.62 1777.7M2101.66 1541.96C2213.3 1753.22 2152.22 1902.87 2095 1960.5C1976.04 2043.26 1861.75 2108.35 1760.56 2149.84M1760.56 2149.84C1760.53 2149.85 1760.51 2149.86 1760.48 2149.88M1760.56 2149.84L1760.48 2149.88M1409.62 1777.7C1223.61 1747 989.538 1619.42 700 1336.12C703.334 1364.3 707.658 1393.54 713.031 1423.5C719.895 1461.77 728.47 1501.22 738.88 1541.12C751.369 1588.99 766.499 1637.53 784.48 1685.5C919.419 2045.49 1214.96 2373.5 1760.48 2149.88M2441.52 1853.21C2442.58 1854.86 2443.63 1856.49 2444.65 1858.12L2448.41 1860.93M2441.52 1853.21C2443.83 1855.71 2446.13 1858.28 2448.41 1860.93M2448.41 1860.93C2496.05 1915.99 2539.04 2002.36 2504.25 2078.62" stroke="black" stroke-width="10"/>
<path fill-rule="evenodd" clip-rule="evenodd" d="M1610 1361C1681.8 1361 1740 1302.8 1740 1231C1740 1159.2 1681.8 1101 1610 1101C1538.2 1101 1480 1159.2 1480 1231C1480 1302.8 1538.2 1361 1610 1361ZM1610 1345C1672.96 1345 1724 1293.96 1724 1231C1724 1168.04 1672.96 1117 1610 1117C1547.04 1117 1496 1168.04 1496 1231C1496 1293.96 1547.04 1345 1610 1345Z" fill="black"/>
<path d="M2076.13 557.256C2034.38 530.779 1528.88 556.079 1541.75 587.052L1462.58 933.573C1602.55 952.583 1888.94 911.427 2014.63 888.472C2058.43 740.726 2100.59 572.768 2076.13 557.256Z" fill="black"/>
<path d="M1435.58 1051.78C1396 1065.88 1311.27 1102.03 1289 1133.75C1374.2 1132.84 1488.91 1125.95 1603.5 1123.49C1672.83 1122 1742.12 1122.13 1804.81 1126.18C1920.08 1121.24 2016.29 1086 2008.11 1049.71L1969.12 1033.95C1949.71 1047.67 1605.34 1051.55 1435.58 1051.78Z" fill="black"/>
<path d="M1435.58 1051.78C1605.34 1051.55 1949.71 1047.67 1969.12 1033.95C1982.39 993.781 1998.62 942.477 2014.63 888.472C1888.94 911.427 1602.55 952.583 1462.58 933.573L1435.58 1051.78Z" fill="#454545"/>
<path d="M1804.81 1126.18C1920.08 1121.24 2016.29 1086 2008.11 1049.71C2033.22 1091.09 2030.98 1175.15 1804.81 1126.18Z" fill="#323030"/>
<path d="M1289 1133.75C1374.2 1132.84 1488.91 1125.95 1603.5 1123.49C1540.5 1133.5 1389.4 1149.55 1289 1133.75Z" fill="#292828"/>
<path d="M1435.58 1051.78C1396 1065.88 1311.27 1102.03 1289 1133.75M1435.58 1051.78C1605.34 1051.55 1949.71 1047.67 1969.12 1033.95M1435.58 1051.78L1462.58 933.573M1289 1133.75C1374.2 1132.84 1488.91 1125.95 1603.5 1123.49M1289 1133.75C1389.4 1149.55 1540.5 1133.5 1603.5 1123.49M2008.11 1049.71L1969.12 1033.95M2008.11 1049.71C2016.29 1086 1920.08 1121.24 1804.81 1126.18M2008.11 1049.71C2033.22 1091.09 2030.98 1175.15 1804.81 1126.18M1969.12 1033.95C1982.39 993.781 1998.62 942.477 2014.63 888.472M2014.63 888.472C2058.43 740.726 2100.59 572.768 2076.13 557.256C2034.38 530.779 1528.88 556.079 1541.75 587.052L1462.58 933.573M2014.63 888.472C1888.94 911.427 1602.55 952.583 1462.58 933.573M1804.81 1126.18C1742.12 1122.13 1672.83 1122 1603.5 1123.49" stroke="black" stroke-width="16"/>
<path fill-rule="evenodd" clip-rule="evenodd" d="M1642.83 1373.59C1641.93 1373.86 1640.98 1374 1640 1374C1639.02 1374 1638.07 1373.86 1637.17 1373.59C1634.71 1374.68 1633 1377.14 1633 1380C1633 1382.86 1634.71 1385.32 1637.17 1386.41C1638.07 1386.14 1639.02 1386 1640 1386C1640.98 1386 1641.93 1386.14 1642.83 1386.41C1645.29 1385.32 1647 1382.86 1647 1380C1647 1377.14 1645.29 1374.68 1642.83 1373.59ZM1630 1380C1630 1383.27 1631.57 1386.18 1634 1388C1631.57 1389.82 1630 1392.73 1630 1396C1630 1399.27 1631.57 1402.18 1634 1404C1631.57 1405.82 1630 1408.73 1630 1412C1630 1415.27 1631.57 1418.18 1634 1420C1631.57 1421.82 1630 1424.73 1630 1428C1630 1431.27 1631.57 1434.18 1634 1436C1631.57 1437.82 1630 1440.73 1630 1444C1630 1447.27 1631.57 1450.18 1634 1452C1631.57 1453.82 1630 1456.73 1630 1460C1630 1463.27 1631.57 1466.18 1634 1468C1631.57 1469.82 1630 1472.73 1630 1476C1630 1478.48 1630.9 1480.75 1632.4 1482.5C1630.9 1484.25 1630 1486.52 1630 1489C1630 1492.27 1631.57 1495.18 1634 1497C1631.57 1498.82 1630 1501.73 1630 1505C1630 1508.27 1631.57 1511.18 1634 1513C1631.57 1514.82 1630 1517.73 1630 1521C1630 1524.27 1631.57 1527.18 1634 1529C1631.57 1530.82 1630 1533.73 1630 1537C1630 1539.48 1630.9 1541.75 1632.4 1543.5C1630.9 1545.25 1630 1547.52 1630 1550C1630 1553.27 1631.57 1556.18 1634 1558C1631.57 1559.82 1630 1562.73 1630 1566C1630 1569.27 1631.57 1572.18 1634 1574C1631.57 1575.82 1630 1578.73 1630 1582C1630 1584.48 1630.9 1586.75 1632.4 1588.5C1630.9 1590.25 1630 1592.52 1630 1595C1630 1598.27 1631.57 1601.18 1634 1603C1631.57 1604.82 1630 1607.73 1630 1611C1630 1613.48 1630.9 1615.75 1632.4 1617.5C1630.9 1619.25 1630 1621.52 1630 1624C1630 1627.27 1631.57 1630.18 1634 1632C1631.57 1633.82 1630 1636.73 1630 1640C1630 1643.27 1631.57 1646.18 1634 1648C1631.57 1649.82 1630 1652.73 1630 1656C1630 1659.27 1631.57 1662.18 1634 1664C1631.57 1665.82 1630 1668.73 1630 1672C1630 1675.27 1631.57 1678.18 1634 1680C1631.57 1681.82 1630 1684.73 1630 1688C1630 1691.7 1632.01 1694.93 1634.99 1696.66C1634.36 1697.97 1634 1699.44 1634 1701C1634 1704.27 1635.57 1707.18 1638 1709C1635.57 1710.82 1634 1713.73 1634 1717C1634 1721.35 1636.78 1725.05 1640.66 1726.43C1640.23 1727.54 1640 1728.74 1640 1730C1640 1734.48 1642.95 1738.27 1647.01 1739.55C1647 1739.7 1647 1739.85 1647 1740C1647 1745.52 1651.48 1750 1657 1750C1657.44 1750 1657.87 1749.97 1658.29 1749.92C1660.01 1752.95 1663.26 1755 1667 1755C1667.44 1755 1667.87 1754.97 1668.29 1754.92C1670.01 1757.95 1673.26 1760 1677 1760C1682.52 1760 1687 1755.52 1687 1750C1687 1744.48 1682.52 1740 1677 1740C1676.56 1740 1676.13 1740.03 1675.71 1740.08C1673.99 1737.05 1670.74 1735 1667 1735C1666.56 1735 1666.13 1735.03 1665.71 1735.08C1664.47 1732.89 1662.43 1731.22 1659.99 1730.45C1660 1730.3 1660 1730.15 1660 1730C1660 1725.65 1657.22 1721.95 1653.34 1720.57C1653.77 1719.46 1654 1718.26 1654 1717C1654 1713.73 1652.43 1710.82 1650 1709C1652.43 1707.18 1654 1704.27 1654 1701C1654 1697.3 1651.99 1694.07 1649.01 1692.34C1649.64 1691.03 1650 1689.56 1650 1688C1650 1684.73 1648.43 1681.82 1646 1680C1648.43 1678.18 1650 1675.27 1650 1672C1650 1668.73 1648.43 1665.82 1646 1664C1648.43 1662.18 1650 1659.27 1650 1656C1650 1652.73 1648.43 1649.82 1646 1648C1648.43 1646.18 1650 1643.27 1650 1640C1650 1636.73 1648.43 1633.82 1646 1632C1648.43 1630.18 1650 1627.27 1650 1624C1650 1621.52 1649.1 1619.25 1647.6 1617.5C1649.1 1615.75 1650 1613.48 1650 1611C1650 1607.73 1648.43 1604.82 1646 1603C1648.43 1601.18 1650 1598.27 1650 1595C1650 1592.52 1649.1 1590.25 1647.6 1588.5C1649.1 1586.75 1650 1584.48 1650 1582C1650 1578.73 1648.43 1575.82 1646 1574C1648.43 1572.18 1650 1569.27 1650 1566C1650 1562.73 1648.43 1559.82 1646 1558C1648.43 1556.18 1650 1553.27 1650 1550C1650 1547.52 1649.1 1545.25 1647.6 1543.5C1649.1 1541.75 1650 1539.48 1650 1537C1650 1533.73 1648.43 1530.82 1646 1529C1648.43 1527.18 1650 1524.27 1650 1521C1650 1517.73 1648.43 1514.82 1646 1513C1648.43 1511.18 1650 1508.27 1650 1505C1650 1501.73 1648.43 1498.82 1646 1497C1648.43 1495.18 1650 1492.27 1650 1489C1650 1486.52 1649.1 1484.25 1647.6 1482.5C1649.1 1480.75 1650 1478.48 1650 1476C1650 1472.73 1648.43 1469.82 1646 1468C1648.43 1466.18 1650 1463.27 1650 1460C1650 1456.73 1648.43 1453.82 1646 1452C1648.43 1450.18 1650 1447.27 1650 1444C1650 1440.73 1648.43 1437.82 1646 1436C1648.43 1434.18 1650 1431.27 1650 1428C1650 1424.73 1648.43 1421.82 1646 1420C1648.43 1418.18 1650 1415.27 1650 1412C1650 1408.73 1648.43 1405.82 1646 1404C1648.43 1402.18 1650 1399.27 1650 1396C1650 1392.73 1648.43 1389.82 1646 1388C1648.43 1386.18 1650 1383.27 1650 1380C1650 1376.73 1648.43 1373.82 1646 1372C1648.43 1370.18 1650 1367.27 1650 1364C1650 1358.48 1645.52 1354 1640 1354C1634.48 1354 1630 1358.48 1630 1364C1630 1367.27 1631.57 1370.18 1634 1372C1631.57 1373.82 1630 1376.73 1630 1380ZM1672.72 1740.96C1671.45 1739.17 1669.36 1738 1667 1738C1666.93 1738 1666.87 1738 1666.8 1738C1666.93 1738.65 1667 1739.32 1667 1740C1667 1743.99 1664.66 1747.44 1661.28 1749.04C1662.55 1750.83 1664.64 1752 1667 1752C1667.07 1752 1667.13 1752 1667.2 1752C1667.07 1751.35 1667 1750.68 1667 1750C1667 1746.01 1669.34 1742.56 1672.72 1740.96ZM1670.12 1751.27C1670.04 1750.86 1670 1750.43 1670 1750C1670 1747.25 1671.58 1744.88 1673.88 1743.73C1673.96 1744.14 1674 1744.57 1674 1745C1674 1747.75 1672.42 1750.12 1670.12 1751.27ZM1671.28 1754.04C1674.66 1752.44 1677 1748.99 1677 1745C1677 1744.32 1676.93 1743.65 1676.8 1743C1676.87 1743 1676.93 1743 1677 1743C1680.87 1743 1684 1746.13 1684 1750C1684 1753.87 1680.87 1757 1677 1757C1674.64 1757 1672.55 1755.83 1671.28 1754.04ZM1664 1740C1664 1739.57 1663.96 1739.14 1663.88 1738.73C1661.58 1739.88 1660 1742.25 1660 1745C1660 1745.43 1660.04 1745.86 1660.12 1746.27C1662.42 1745.12 1664 1742.75 1664 1740ZM1657 1745C1657 1741.01 1659.34 1737.56 1662.72 1735.96C1661.9 1734.81 1660.75 1733.91 1659.4 1733.42C1658 1737.26 1654.32 1740 1650 1740C1650 1743.87 1653.13 1747 1657 1747C1657.07 1747 1657.13 1747 1657.2 1747C1657.07 1746.35 1657 1745.68 1657 1745ZM1657 1730C1657 1726.76 1654.8 1724.04 1651.82 1723.24C1649.98 1725.53 1647.16 1727 1644 1727C1643.89 1727 1643.78 1727 1643.68 1726.99C1643.24 1727.91 1643 1728.92 1643 1730C1643 1733.02 1644.92 1735.6 1647.6 1736.58C1649 1732.74 1652.68 1730 1657 1730ZM1656.31 1733.03C1653.83 1733.28 1651.73 1734.82 1650.69 1736.97C1653.17 1736.72 1655.27 1735.18 1656.31 1733.03ZM1650 1720C1650.11 1720 1650.22 1720 1650.32 1720.01C1650.76 1719.09 1651 1718.08 1651 1717C1651 1714.14 1649.29 1711.68 1646.83 1710.59C1645.93 1710.86 1644.98 1711 1644 1711C1643.02 1711 1642.07 1710.86 1641.17 1710.59C1638.71 1711.68 1637 1714.14 1637 1717C1637 1720.24 1639.2 1722.96 1642.18 1723.76C1644.02 1721.47 1646.84 1720 1650 1720ZM1646.83 1707.41C1649.29 1706.32 1651 1703.86 1651 1701C1651 1698.33 1649.5 1696.01 1647.31 1694.83C1645.48 1696.78 1642.88 1698 1640 1698C1639.24 1698 1638.5 1697.92 1637.8 1697.76C1637.29 1698.73 1637 1699.83 1637 1701C1637 1703.86 1638.71 1706.32 1641.17 1707.41C1642.07 1707.14 1643.02 1707 1644 1707C1644.98 1707 1645.93 1707.14 1646.83 1707.41ZM1643.59 1694.01C1642.65 1694.57 1641.57 1694.92 1640.41 1694.99C1641.35 1694.43 1642.43 1694.08 1643.59 1694.01ZM1644 1691C1644.76 1691 1645.5 1691.08 1646.2 1691.24C1646.71 1690.27 1647 1689.17 1647 1688C1647 1685.14 1645.29 1682.68 1642.83 1681.59C1641.93 1681.86 1640.98 1682 1640 1682C1639.02 1682 1638.07 1681.86 1637.17 1681.59C1634.71 1682.68 1633 1685.14 1633 1688C1633 1690.67 1634.5 1692.99 1636.69 1694.17C1638.52 1692.22 1641.12 1691 1644 1691ZM1642.83 1678.41C1645.29 1677.32 1647 1674.86 1647 1672C1647 1669.14 1645.29 1666.68 1642.83 1665.59C1641.93 1665.86 1640.98 1666 1640 1666C1639.02 1666 1638.07 1665.86 1637.17 1665.59C1634.71 1666.68 1633 1669.14 1633 1672C1633 1674.86 1634.71 1677.32 1637.17 1678.41C1638.07 1678.14 1639.02 1678 1640 1678C1640.98 1678 1641.93 1678.14 1642.83 1678.41ZM1640 1662C1640.98 1662 1641.93 1662.14 1642.83 1662.41C1645.29 1661.32 1647 1658.86 1647 1656C1647 1653.14 1645.29 1650.68 1642.83 1649.59C1641.93 1649.86 1640.98 1650 1640 1650C1639.02 1650 1638.07 1649.86 1637.17 1649.59C1634.71 1650.68 1633 1653.14 1633 1656C1633 1658.86 1634.71 1661.32 1637.17 1662.41C1638.07 1662.14 1639.02 1662 1640 1662ZM1642.83 1646.41C1645.29 1645.32 1647 1642.86 1647 1640C1647 1637.14 1645.29 1634.68 1642.83 1633.59C1641.93 1633.86 1640.98 1634 1640 1634C1639.02 1634 1638.07 1633.86 1637.17 1633.59C1634.71 1634.68 1633 1637.14 1633 1640C1633 1642.86 1634.71 1645.32 1637.17 1646.41C1638.07 1646.14 1639.02 1646 1640 1646C1640.98 1646 1641.93 1646.14 1642.83 1646.41ZM1640 1630C1640.98 1630 1641.93 1630.14 1642.83 1630.41C1645.29 1629.32 1647 1626.86 1647 1624C1647 1622.27 1646.37 1620.68 1645.33 1619.46C1643.79 1620.44 1641.96 1621 1640 1621C1638.04 1621 1636.21 1620.44 1634.67 1619.46C1633.63 1620.68 1633 1622.27 1633 1624C1633 1626.86 1634.71 1629.32 1637.17 1630.41C1638.07 1630.14 1639.02 1630 1640 1630ZM1645.33 1615.54C1646.37 1614.32 1647 1612.73 1647 1611C1647 1608.14 1645.29 1605.68 1642.83 1604.59C1641.93 1604.86 1640.98 1605 1640 1605C1639.02 1605 1638.07 1604.86 1637.17 1604.59C1634.71 1605.68 1633 1608.14 1633 1611C1633 1612.73 1633.63 1614.32 1634.67 1615.54C1636.21 1614.56 1638.04 1614 1640 1614C1641.96 1614 1643.79 1614.56 1645.33 1615.54ZM1637.4 1617.5C1638.2 1617.18 1639.08 1617 1640 1617C1640.92 1617 1641.8 1617.18 1642.6 1617.5C1641.8 1617.82 1640.92 1618 1640 1618C1639.08 1618 1638.2 1617.82 1637.4 1617.5ZM1640 1601C1640.98 1601 1641.93 1601.14 1642.83 1601.41C1645.29 1600.32 1647 1597.86 1647 1595C1647 1593.27 1646.37 1591.68 1645.33 1590.46C1643.79 1591.44 1641.96 1592 1640 1592C1638.04 1592 1636.21 1591.44 1634.67 1590.46C1633.63 1591.68 1633 1593.27 1633 1595C1633 1597.86 1634.71 1600.32 1637.17 1601.41C1638.07 1601.14 1639.02 1601 1640 1601ZM1645.33 1586.54C1646.37 1585.32 1647 1583.73 1647 1582C1647 1579.14 1645.29 1576.68 1642.83 1575.59C1641.93 1575.86 1640.98 1576 1640 1576C1639.02 1576 1638.07 1575.86 1637.17 1575.59C1634.71 1576.68 1633 1579.14 1633 1582C1633 1583.73 1633.63 1585.32 1634.67 1586.54C1636.21 1585.56 1638.04 1585 1640 1585C1641.96 1585 1643.79 1585.56 1645.33 1586.54ZM1637.4 1588.5C1638.2 1588.18 1639.08 1588 1640 1588C1640.92 1588 1641.8 1588.18 1642.6 1588.5C1641.8 1588.82 1640.92 1589 1640 1589C1639.08 1589 1638.2 1588.82 1637.4 1588.5ZM1640 1572C1640.98 1572 1641.93 1572.14 1642.83 1572.41C1645.29 1571.32 1647 1568.86 1647 1566C1647 1563.14 1645.29 1560.68 1642.83 1559.59C1641.93 1559.86 1640.98 1560 1640 1560C1639.02 1560 1638.07 1559.86 1637.17 1559.59C1634.71 1560.68 1633 1563.14 1633 1566C1633 1568.86 1634.71 1571.32 1637.17 1572.41C1638.07 1572.14 1639.02 1572 1640 1572ZM1642.83 1556.41C1645.29 1555.32 1647 1552.86 1647 1550C1647 1548.27 1646.37 1546.68 1645.33 1545.46C1643.79 1546.44 1641.96 1547 1640 1547C1638.04 1547 1636.21 1546.44 1634.67 1545.46C1633.63 1546.68 1633 1548.27 1633 1550C1633 1552.86 1634.71 1555.32 1637.17 1556.41C1638.07 1556.14 1639.02 1556 1640 1556C1640.98 1556 1641.93 1556.14 1642.83 1556.41ZM1640 1544C1640.92 1544 1641.8 1543.82 1642.6 1543.5C1641.8 1543.18 1640.92 1543 1640 1543C1639.08 1543 1638.2 1543.18 1637.4 1543.5C1638.2 1543.82 1639.08 1544 1640 1544ZM1640 1540C1641.96 1540 1643.79 1540.56 1645.33 1541.54C1646.37 1540.32 1647 1538.73 1647 1537C1647 1534.14 1645.29 1531.68 1642.83 1530.59C1641.93 1530.86 1640.98 1531 1640 1531C1639.02 1531 1638.07 1530.86 1637.17 1530.59C1634.71 1531.68 1633 1534.14 1633 1537C1633 1538.73 1633.63 1540.32 1634.67 1541.54C1636.21 1540.56 1638.04 1540 1640 1540ZM1642.83 1527.41C1645.29 1526.32 1647 1523.86 1647 1521C1647 1518.14 1645.29 1515.68 1642.83 1514.59C1641.93 1514.86 1640.98 1515 1640 1515C1639.02 1515 1638.07 1514.86 1637.17 1514.59C1634.71 1515.68 1633 1518.14 1633 1521C1633 1523.86 1634.71 1526.32 1637.17 1527.41C1638.07 1527.14 1639.02 1527 1640 1527C1640.98 1527 1641.93 1527.14 1642.83 1527.41ZM1640 1511C1640.98 1511 1641.93 1511.14 1642.83 1511.41C1645.29 1510.32 1647 1507.86 1647 1505C1647 1502.14 1645.29 1499.68 1642.83 1498.59C1641.93 1498.86 1640.98 1499 1640 1499C1639.02 1499 1638.07 1498.86 1637.17 1498.59C1634.71 1499.68 1633 1502.14 1633 1505C1633 1507.86 1634.71 1510.32 1637.17 1511.41C1638.07 1511.14 1639.02 1511 1640 1511ZM1642.83 1495.41C1645.29 1494.32 1647 1491.86 1647 1489C1647 1487.27 1646.37 1485.68 1645.33 1484.46C1643.79 1485.44 1641.96 1486 1640 1486C1638.04 1486 1636.21 1485.44 1634.67 1484.46C1633.63 1485.68 1633 1487.27 1633 1489C1633 1491.86 1634.71 1494.32 1637.17 1495.41C1638.07 1495.14 1639.02 1495 1640 1495C1640.98 1495 1641.93 1495.14 1642.83 1495.41ZM1640 1483C1640.92 1483 1641.8 1482.82 1642.6 1482.5C1641.8 1482.18 1640.92 1482 1640 1482C1639.08 1482 1638.2 1482.18 1637.4 1482.5C1638.2 1482.82 1639.08 1483 1640 1483ZM1640 1479C1641.96 1479 1643.79 1479.56 1645.33 1480.54C1646.37 1479.32 1647 1477.73 1647 1476C1647 1473.14 1645.29 1470.68 1642.83 1469.59C1641.93 1469.86 1640.98 1470 1640 1470C1639.02 1470 1638.07 1469.86 1637.17 1469.59C1634.71 1470.68 1633 1473.14 1633 1476C1633 1477.73 1633.63 1479.32 1634.67 1480.54C1636.21 1479.56 1638.04 1479 1640 1479ZM1642.83 1466.41C1645.29 1465.32 1647 1462.86 1647 1460C1647 1457.14 1645.29 1454.68 1642.83 1453.59C1641.93 1453.86 1640.98 1454 1640 1454C1639.02 1454 1638.07 1453.86 1637.17 1453.59C1634.71 1454.68 1633 1457.14 1633 1460C1633 1462.86 1634.71 1465.32 1637.17 1466.41C1638.07 1466.14 1639.02 1466 1640 1466C1640.98 1466 1641.93 1466.14 1642.83 1466.41ZM1640 1450C1640.98 1450 1641.93 1450.14 1642.83 1450.41C1645.29 1449.32 1647 1446.86 1647 1444C1647 1441.14 1645.29 1438.68 1642.83 1437.59C1641.93 1437.86 1640.98 1438 1640 1438C1639.02 1438 1638.07 1437.86 1637.17 1437.59C1634.71 1438.68 1633 1441.14 1633 1444C1633 1446.86 1634.71 1449.32 1637.17 1450.41C1638.07 1450.14 1639.02 1450 1640 1450ZM1642.83 1434.41C1645.29 1433.32 1647 1430.86 1647 1428C1647 1425.14 1645.29 1422.68 1642.83 1421.59C1641.93 1421.86 1640.98 1422 1640 1422C1639.02 1422 1638.07 1421.86 1637.17 1421.59C1634.71 1422.68 1633 1425.14 1633 1428C1633 1430.86 1634.71 1433.32 1637.17 1434.41C1638.07 1434.14 1639.02 1434 1640 1434C1640.98 1434 1641.93 1434.14 1642.83 1434.41ZM1640 1418C1640.98 1418 1641.93 1418.14 1642.83 1418.41C1645.29 1417.32 1647 1414.86 1647 1412C1647 1409.14 1645.29 1406.68 1642.83 1405.59C1641.93 1405.86 1640.98 1406 1640 1406C1639.02 1406 1638.07 1405.86 1637.17 1405.59C1634.71 1406.68 1633 1409.14 1633 1412C1633 1414.86 1634.71 1417.32 1637.17 1418.41C1638.07 1418.14 1639.02 1418 1640 1418ZM1642.83 1402.41C1645.29 1401.32 1647 1398.86 1647 1396C1647 1393.14 1645.29 1390.68 1642.83 1389.59C1641.93 1389.86 1640.98 1390 1640 1390C1639.02 1390 1638.07 1389.86 1637.17 1389.59C1634.71 1390.68 1633 1393.14 1633 1396C1633 1398.86 1634.71 1401.32 1637.17 1402.41C1638.07 1402.14 1639.02 1402 1640 1402C1640.98 1402 1641.93 1402.14 1642.83 1402.41ZM1642.83 1370.41C1645.29 1369.32 1647 1366.86 1647 1364C1647 1360.13 1643.87 1357 1640 1357C1636.13 1357 1633 1360.13 1633 1364C1633 1366.86 1634.71 1369.32 1637.17 1370.41C1638.07 1370.14 1639.02 1370 1640 1370C1640.98 1370 1641.93 1370.14 1642.83 1370.41Z" fill="black"/>
<circle cx="985.5" cy="1272.5" r="33.5" fill="black" fill-opacity="0.5"/>
<circle cx="985.5" cy="1272.5" r="27.5" stroke="white" stroke-opacity="0.5" stroke-width="12"/>
<circle cx="1609.5" cy="1233.5" r="45.5" fill="#D9D9D9"/>
</svg>
